<!DOCTYPE svg PUBLIC "-//W3C//DTD SVG 20010904//EN" "http://www.w3.org/TR/2001/REC-SVG-20010904/DTD/svg10.dtd">
<svg version="1.0" xmlns="http://www.w3.org/2000/svg" width="30px" height="28px" viewBox="0 0 300 280" preserveAspectRatio="xMidYMid meet">
<g id="layer101" fill="#1ab798" stroke="none">
 <path d="M4 267 c-2 -7 -3 -69 -2 -138 l3 -124 130 0 130 0 3 28 c2 15 9 27 18 27 8 0 14 9 14 20 0 11 -7 20 -15 20 -8 0 -15 5 -15 10 0 6 7 10 15 10 8 0 15 9 15 20 0 11 -7 20 -15 20 -8 0 -15 5 -15 10 0 6 7 10 15 10 8 0 15 9 15 20 0 11 -6 20 -14 20 -9 0 -16 12 -18 28 l-3 27 -128 3 c-99 2 -129 0 -133 -11z m236 -127 l0 -100 -105 0 -105 0 0 100 0 100 105 0 105 0 0 -100z"/>
 <path d="M60 185 c0 -34 1 -35 40 -35 39 0 40 1 40 35 0 34 -1 35 -40 35 -39 0 -40 -1 -40 -35z"/>
 <path d="M150 170 c0 -49 1 -50 30 -50 29 0 30 1 30 50 0 49 -1 50 -30 50 -29 0 -30 -1 -30 -50z"/>
 <path d="M60 100 l0 -40 40 0 40 0 0 40 0 40 -40 0 -40 0 0 -40z"/>
 <path d="M150 85 c0 -21 5 -25 30 -25 25 0 30 4 30 25 0 21 -5 25 -30 25 -25 0 -30 -4 -30 -25z"/>
 </g>

</svg>